<svg width="98" height="98" viewBox="0 0 98 98" fill="none" xmlns="http://www.w3.org/2000/svg">
<g clip-path="url(#clip0_72_27)">
<path fill-rule="evenodd" clip-rule="evenodd" d="M74.5829 94.9496C67.5989 91.8844 52.3505 86.957 49.8673 86.957C48.4705 86.957 47.2677 86.3362 47.2677 85.599C47.2677 83.9694 52.2341 83.3486 56.7737 84.435C59.8001 85.1334 59.8001 85.172 56.3857 82.5336C48.5093 76.3644 36.8692 61.1937 36.7528 56.887C36.714 55.6066 19.1376 49.4762 13.0848 19.7942C11.2612 10.7926 13.6281 -0.265366 17.2753 0.16143C17.8961 0.239029 18.3228 0.743431 18.3616 1.32543L18.5944 6.87345C19.9136 36.5167 35.3948 48.9327 35.4336 48.9715C35.55 48.6222 34.386 39.8923 44.7069 36.1675C49.2465 34.5379 54.4845 34.8094 58.2093 37.9522C70.1597 48.0014 62.3997 62.5517 46.7633 59.5253C44.6681 59.0985 44.6293 58.8656 47.1513 63.1336C51.4969 70.4668 60.3433 79.352 69.8105 85.8704C73.3413 88.276 73.3025 88.3538 70.6253 83.077C64.2621 70.6998 64.0681 63.2501 70.2373 68.7209C71.6341 69.9625 72.0221 70.622 76.0961 79.2356C77.6481 82.5336 80.2865 87.5002 81.9549 90.255C85.0589 95.4541 85.2141 96.0748 83.5457 96.6956C81.4505 97.4328 79.3553 97.0448 74.5829 94.9496ZM54.4457 55.5675C59.8777 53.1231 58.5585 45.2854 51.8461 39.8923C48.4705 37.1762 44.2413 39.3103 42.7281 44.5095C41.8357 47.6135 42.5341 53.7051 43.8921 54.4035C47.0349 56.1495 52.0013 56.6926 54.4457 55.5675Z" fill="#9333EA"/>
</g>
<defs>
<clipPath id="clip0_72_27">
<rect width="97" height="97" fill="white" transform="matrix(1 0 0 -1 0.0395508 97.0396)"/>
</clipPath>
</defs>
</svg>
